<svg xmlns="http://www.w3.org/2000/svg" viewBox="0 0 824 150" width="824" height="150" role="img" aria-label="Pac-Man eating manjeetsingh-satveer's GitHub contribution graph">
<style>
  .mv{animation:mv 31.535s linear infinite;will-change:transform}
  @keyframes mv{0%{transform:translate(22px,40px)}14.016%{transform:translate(802px,40px)}14.286%{transform:translate(802px,55px)}28.302%{transform:translate(22px,55px)}28.571%{transform:translate(22px,70px)}42.588%{transform:translate(802px,70px)}42.857%{transform:translate(802px,85px)}56.873%{transform:translate(22px,85px)}57.143%{transform:translate(22px,100px)}71.159%{transform:translate(802px,100px)}71.429%{transform:translate(802px,115px)}85.445%{transform:translate(22px,115px)}85.714%{transform:translate(22px,130px)}99.73%{transform:translate(802px,130px)}100%{transform:translate(802px,130px)}}
  .rot{animation:rot 31.535s linear infinite}
  @keyframes rot{0%{transform:rotate(0deg)}14.016%{transform:rotate(0deg)}14.286%{transform:rotate(180deg)}28.302%{transform:rotate(180deg)}28.571%{transform:rotate(0deg)}42.588%{transform:rotate(0deg)}42.857%{transform:rotate(180deg)}56.873%{transform:rotate(180deg)}57.143%{transform:rotate(0deg)}71.159%{transform:rotate(0deg)}71.429%{transform:rotate(180deg)}85.445%{transform:rotate(180deg)}85.714%{transform:rotate(0deg)}99.73%{transform:rotate(0deg)}100%{transform:rotate(0deg)}}
  .g1{animation-delay:1.36s;animation-fill-mode:backwards}
  .g2{animation-delay:2.72s;animation-fill-mode:backwards}
  .mo{animation:chompA .28s steps(1) infinite}
  .mc{animation:chompB .28s steps(1) infinite}
  @keyframes chompA{0%,49%{opacity:1}50%,100%{opacity:0}}
  @keyframes chompB{0%,49%{opacity:0}50%,100%{opacity:1}}
  .bob{animation:bob .6s ease-in-out infinite alternate}
  @keyframes bob{from{transform:translateY(-1px)}to{transform:translateY(1px)}}
  .cur{animation:blink 1.1s steps(1) infinite}
  @keyframes blink{0%,49%{opacity:1}50%,100%{opacity:0}}
  text{font-family:'DM Mono','Cascadia Code',ui-monospace,'SF Mono',Consolas,monospace}
  .p6_4{animation:kp6_4 31.535s linear infinite}@keyframes kp6_4{0%,58.895%{fill:#7fcdef}59.295%,99.5%{fill:#eef1f4;filter:none}100%{fill:#7fcdef}}.p6_5{animation:kp6_5 31.535s linear infinite}@keyframes kp6_5{0%,83.962%{fill:#bfe6f7}84.36200000000001%,99.5%{fill:#eef1f4;filter:none}100%{fill:#bfe6f7}}.p12_3{animation:kp12_3 31.535s linear infinite}@keyframes kp12_3{0%,53.774%{fill:#bfe6f7}54.174%,99.5%{fill:#eef1f4;filter:none}100%{fill:#bfe6f7}}.p12_4{animation:kp12_4 31.535s linear infinite}@keyframes kp12_4{0%,60.512%{fill:#7fcdef}60.912%,99.5%{fill:#eef1f4;filter:none}100%{fill:#7fcdef}}.p14_3{animation:kp14_3 31.535s linear infinite}@keyframes kp14_3{0%,53.235%{fill:#7fcdef}53.635%,99.5%{fill:#eef1f4;filter:none}100%{fill:#7fcdef}}.p23_3{animation:kp23_3 31.535s linear infinite}@keyframes kp23_3{0%,50.809%{fill:#7fcdef}51.208999999999996%,99.5%{fill:#eef1f4;filter:none}100%{fill:#7fcdef}}.p33_2{animation:kp33_2 31.535s linear infinite}@keyframes kp33_2{0%,37.601%{fill:#36a6d9}38.001%,99.5%{fill:#eef1f4;filter:none}100%{fill:#36a6d9}}.p33_3{animation:kp33_3 31.535s linear infinite}@keyframes kp33_3{0%,48.113%{fill:#7fcdef}48.513%,99.5%{fill:#eef1f4;filter:none}100%{fill:#7fcdef}}.p33_4{animation:kp33_4 31.535s linear infinite}@keyframes kp33_4{0%,66.173%{fill:#36a6d9}66.57300000000001%,99.5%{fill:#eef1f4;filter:none}100%{fill:#36a6d9}}.p33_6{animation:kp33_6 31.535s linear infinite}@keyframes kp33_6{0%,94.744%{fill:#0b7fb0}95.144%,99.5%{fill:#eef1f4;filter:none}100%{fill:#0b7fb0}}.p34_0{animation:kp34_0 31.535s linear infinite}@keyframes kp34_0{0%,9.299%{fill:#bfe6f7}9.699%,99.5%{fill:#eef1f4;filter:none}100%{fill:#bfe6f7}}.p34_1{animation:kp34_1 31.535s linear infinite}@keyframes kp34_1{0%,19.272%{fill:#36a6d9}19.671999999999997%,99.5%{fill:#eef1f4;filter:none}100%{fill:#36a6d9}}.p34_5{animation:kp34_5 31.535s linear infinite}@keyframes kp34_5{0%,76.415%{fill:#36a6d9}76.81500000000001%,99.5%{fill:#eef1f4;filter:none}100%{fill:#36a6d9}}.p35_5{animation:kp35_5 31.535s linear infinite}@keyframes kp35_5{0%,76.146%{fill:#36a6d9}76.546%,99.5%{fill:#eef1f4;filter:none}100%{fill:#36a6d9}}.p35_6{animation:kp35_6 31.535s linear infinite}@keyframes kp35_6{0%,95.283%{fill:#bfe6f7}95.683%,99.5%{fill:#eef1f4;filter:none}100%{fill:#bfe6f7}}.p42_4{animation:kp42_4 31.535s linear infinite}@keyframes kp42_4{0%,68.598%{fill:#0b7fb0}68.998%,99.5%{fill:#eef1f4;filter:none}100%{fill:#0b7fb0}}.p45_0{animation:kp45_0 31.535s linear infinite}@keyframes kp45_0{0%,12.264%{fill:#0b7fb0}12.664%,99.5%{fill:#eef1f4;filter:none}100%{fill:#0b7fb0}}.p45_1{animation:kp45_1 31.535s linear infinite}@keyframes kp45_1{0%,16.307%{fill:#36a6d9}16.706999999999997%,99.5%{fill:#eef1f4;filter:none}100%{fill:#36a6d9}}.p45_2{animation:kp45_2 31.535s linear infinite}@keyframes kp45_2{0%,40.836%{fill:#7fcdef}41.236%,99.5%{fill:#eef1f4;filter:none}100%{fill:#7fcdef}}.p45_3{animation:kp45_3 31.535s linear infinite}@keyframes kp45_3{0%,44.879%{fill:#0b7fb0}45.278999999999996%,99.5%{fill:#eef1f4;filter:none}100%{fill:#0b7fb0}}.p47_1{animation:kp47_1 31.535s linear infinite}@keyframes kp47_1{0%,15.768%{fill:#7fcdef}16.168%,99.5%{fill:#eef1f4;filter:none}100%{fill:#7fcdef}}.p47_5{animation:kp47_5 31.535s linear infinite}@keyframes kp47_5{0%,72.911%{fill:#7fcdef}73.311%,99.5%{fill:#eef1f4;filter:none}100%{fill:#7fcdef}}.p47_6{animation:kp47_6 31.535s linear infinite}@keyframes kp47_6{0%,98.518%{fill:#bfe6f7}98.918%,99.5%{fill:#eef1f4;filter:none}100%{fill:#bfe6f7}}.p48_0{animation:kp48_0 31.535s linear infinite}@keyframes kp48_0{0%,13.073%{fill:#0b7fb0}13.473%,99.5%{fill:#eef1f4;filter:none}100%{fill:#0b7fb0}}.p48_1{animation:kp48_1 31.535s linear infinite}@keyframes kp48_1{0%,15.499%{fill:#bfe6f7}15.899000000000001%,99.5%{fill:#eef1f4;filter:none}100%{fill:#bfe6f7}}.p50_6{animation:kp50_6 31.535s linear infinite}@keyframes kp50_6{0%,99.326%{fill:#0b7fb0}99.726%,99.5%{fill:#eef1f4;filter:none}100%{fill:#0b7fb0}}.p51_2{animation:kp51_2 31.535s linear infinite}@keyframes kp51_2{0%,42.453%{fill:#0b7fb0}42.853%,99.5%{fill:#eef1f4;filter:none}100%{fill:#0b7fb0}}.p51_3{animation:kp51_3 31.535s linear infinite}@keyframes kp51_3{0%,43.261%{fill:#36a6d9}43.661%,99.5%{fill:#eef1f4;filter:none}100%{fill:#36a6d9}}.p51_4{animation:kp51_4 31.535s linear infinite}@keyframes kp51_4{0%,71.024%{fill:#7fcdef}71.424%,99.5%{fill:#eef1f4;filter:none}100%{fill:#7fcdef}}.p52_0{animation:kp52_0 31.535s linear infinite}@keyframes kp52_0{0%,14.151%{fill:#0b7fb0}14.551%,99.5%{fill:#eef1f4;filter:none}100%{fill:#0b7fb0}}.p52_1{animation:kp52_1 31.535s linear infinite}@keyframes kp52_1{0%,14.42%{fill:#0b7fb0}14.82%,99.5%{fill:#eef1f4;filter:none}100%{fill:#0b7fb0}}.p52_2{animation:kp52_2 31.535s linear infinite}@keyframes kp52_2{0%,42.722%{fill:#36a6d9}43.122%,99.5%{fill:#eef1f4;filter:none}100%{fill:#36a6d9}}</style>
<rect x="0.5" y="0.5" width="823" height="149" rx="9" fill="#ffffff" stroke="rgba(2,4,8,0.10)"/>
<text x="16" y="21" font-size="11" fill="#57606a">&gt; pac-man.exe --user <tspan fill="#0b7fb0">manjeetsingh-satveer</tspan><tspan class="cur" fill="#0b7fb0"> ▌</tspan></text>
<text x="808" y="21" font-size="11" fill="#57606a" text-anchor="end">manjeet-singh.com</text>
<rect x="16" y="34" width="12" height="12" rx="3" fill="#eef1f4"/><rect x="16" y="49" width="12" height="12" rx="3" fill="#eef1f4"/><rect x="16" y="64" width="12" height="12" rx="3" fill="#eef1f4"/><rect x="16" y="79" width="12" height="12" rx="3" fill="#eef1f4"/><rect x="16" y="94" width="12" height="12" rx="3" fill="#eef1f4"/><rect x="16" y="109" width="12" height="12" rx="3" fill="#eef1f4"/><rect x="16" y="124" width="12" height="12" rx="3" fill="#eef1f4"/><rect x="31" y="34" width="12" height="12" rx="3" fill="#eef1f4"/><rect x="31" y="49" width="12" height="12" rx="3" fill="#eef1f4"/><rect x="31" y="64" width="12" height="12" rx="3" fill="#eef1f4"/><rect x="31" y="79" width="12" height="12" rx="3" fill="#eef1f4"/><rect x="31" y="94" width="12" height="12" rx="3" fill="#eef1f4"/><rect x="31" y="109" width="12" height="12" rx="3" fill="#eef1f4"/><rect x="31" y="124" width="12" height="12" rx="3" fill="#eef1f4"/><rect x="46" y="34" width="12" height="12" rx="3" fill="#eef1f4"/><rect x="46" y="49" width="12" height="12" rx="3" fill="#eef1f4"/><rect x="46" y="64" width="12" height="12" rx="3" fill="#eef1f4"/><rect x="46" y="79" width="12" height="12" rx="3" fill="#eef1f4"/><rect x="46" y="94" width="12" height="12" rx="3" fill="#eef1f4"/><rect x="46" y="109" width="12" height="12" rx="3" fill="#eef1f4"/><rect x="46" y="124" width="12" height="12" rx="3" fill="#eef1f4"/><rect x="61" y="34" width="12" height="12" rx="3" fill="#eef1f4"/><rect x="61" y="49" width="12" height="12" rx="3" fill="#eef1f4"/><rect x="61" y="64" width="12" height="12" rx="3" fill="#eef1f4"/><rect x="61" y="79" width="12" height="12" rx="3" fill="#eef1f4"/><rect x="61" y="94" width="12" height="12" rx="3" fill="#eef1f4"/><rect x="61" y="109" width="12" height="12" rx="3" fill="#eef1f4"/><rect x="61" y="124" width="12" height="12" rx="3" fill="#eef1f4"/><rect x="76" y="34" width="12" height="12" rx="3" fill="#eef1f4"/><rect x="76" y="49" width="12" height="12" rx="3" fill="#eef1f4"/><rect x="76" y="64" width="12" height="12" rx="3" fill="#eef1f4"/><rect x="76" y="79" width="12" height="12" rx="3" fill="#eef1f4"/><rect x="76" y="94" width="12" height="12" rx="3" fill="#eef1f4"/><rect x="76" y="109" width="12" height="12" rx="3" fill="#eef1f4"/><rect x="76" y="124" width="12" height="12" rx="3" fill="#eef1f4"/><rect x="91" y="34" width="12" height="12" rx="3" fill="#eef1f4"/><rect x="91" y="49" width="12" height="12" rx="3" fill="#eef1f4"/><rect x="91" y="64" width="12" height="12" rx="3" fill="#eef1f4"/><rect x="91" y="79" width="12" height="12" rx="3" fill="#eef1f4"/><rect x="91" y="94" width="12" height="12" rx="3" fill="#eef1f4"/><rect x="91" y="109" width="12" height="12" rx="3" fill="#eef1f4"/><rect x="91" y="124" width="12" height="12" rx="3" fill="#eef1f4"/><rect x="106" y="34" width="12" height="12" rx="3" fill="#eef1f4"/><rect x="106" y="49" width="12" height="12" rx="3" fill="#eef1f4"/><rect x="106" y="64" width="12" height="12" rx="3" fill="#eef1f4"/><rect x="106" y="79" width="12" height="12" rx="3" fill="#eef1f4"/><rect class="p6_4" x="106" y="94" width="12" height="12" rx="3" fill="#7fcdef" /><rect class="p6_5" x="106" y="109" width="12" height="12" rx="3" fill="#bfe6f7" /><rect x="106" y="124" width="12" height="12" rx="3" fill="#eef1f4"/><rect x="121" y="34" width="12" height="12" rx="3" fill="#eef1f4"/><rect x="121" y="49" width="12" height="12" rx="3" fill="#eef1f4"/><rect x="121" y="64" width="12" height="12" rx="3" fill="#eef1f4"/><rect x="121" y="79" width="12" height="12" rx="3" fill="#eef1f4"/><rect x="121" y="94" width="12" height="12" rx="3" fill="#eef1f4"/><rect x="121" y="109" width="12" height="12" rx="3" fill="#eef1f4"/><rect x="121" y="124" width="12" height="12" rx="3" fill="#eef1f4"/><rect x="136" y="34" width="12" height="12" rx="3" fill="#eef1f4"/><rect x="136" y="49" width="12" height="12" rx="3" fill="#eef1f4"/><rect x="136" y="64" width="12" height="12" rx="3" fill="#eef1f4"/><rect x="136" y="79" width="12" height="12" rx="3" fill="#eef1f4"/><rect x="136" y="94" width="12" height="12" rx="3" fill="#eef1f4"/><rect x="136" y="109" width="12" height="12" rx="3" fill="#eef1f4"/><rect x="136" y="124" width="12" height="12" rx="3" fill="#eef1f4"/><rect x="151" y="34" width="12" height="12" rx="3" fill="#eef1f4"/><rect x="151" y="49" width="12" height="12" rx="3" fill="#eef1f4"/><rect x="151" y="64" width="12" height="12" rx="3" fill="#eef1f4"/><rect x="151" y="79" width="12" height="12" rx="3" fill="#eef1f4"/><rect x="151" y="94" width="12" height="12" rx="3" fill="#eef1f4"/><rect x="151" y="109" width="12" height="12" rx="3" fill="#eef1f4"/><rect x="151" y="124" width="12" height="12" rx="3" fill="#eef1f4"/><rect x="166" y="34" width="12" height="12" rx="3" fill="#eef1f4"/><rect x="166" y="49" width="12" height="12" rx="3" fill="#eef1f4"/><rect x="166" y="64" width="12" height="12" rx="3" fill="#eef1f4"/><rect x="166" y="79" width="12" height="12" rx="3" fill="#eef1f4"/><rect x="166" y="94" width="12" height="12" rx="3" fill="#eef1f4"/><rect x="166" y="109" width="12" height="12" rx="3" fill="#eef1f4"/><rect x="166" y="124" width="12" height="12" rx="3" fill="#eef1f4"/><rect x="181" y="34" width="12" height="12" rx="3" fill="#eef1f4"/><rect x="181" y="49" width="12" height="12" rx="3" fill="#eef1f4"/><rect x="181" y="64" width="12" height="12" rx="3" fill="#eef1f4"/><rect x="181" y="79" width="12" height="12" rx="3" fill="#eef1f4"/><rect x="181" y="94" width="12" height="12" rx="3" fill="#eef1f4"/><rect x="181" y="109" width="12" height="12" rx="3" fill="#eef1f4"/><rect x="181" y="124" width="12" height="12" rx="3" fill="#eef1f4"/><rect x="196" y="34" width="12" height="12" rx="3" fill="#eef1f4"/><rect x="196" y="49" width="12" height="12" rx="3" fill="#eef1f4"/><rect x="196" y="64" width="12" height="12" rx="3" fill="#eef1f4"/><rect class="p12_3" x="196" y="79" width="12" height="12" rx="3" fill="#bfe6f7" /><rect class="p12_4" x="196" y="94" width="12" height="12" rx="3" fill="#7fcdef" /><rect x="196" y="109" width="12" height="12" rx="3" fill="#eef1f4"/><rect x="196" y="124" width="12" height="12" rx="3" fill="#eef1f4"/><rect x="211" y="34" width="12" height="12" rx="3" fill="#eef1f4"/><rect x="211" y="49" width="12" height="12" rx="3" fill="#eef1f4"/><rect x="211" y="64" width="12" height="12" rx="3" fill="#eef1f4"/><rect x="211" y="79" width="12" height="12" rx="3" fill="#eef1f4"/><rect x="211" y="94" width="12" height="12" rx="3" fill="#eef1f4"/><rect x="211" y="109" width="12" height="12" rx="3" fill="#eef1f4"/><rect x="211" y="124" width="12" height="12" rx="3" fill="#eef1f4"/><rect x="226" y="34" width="12" height="12" rx="3" fill="#eef1f4"/><rect x="226" y="49" width="12" height="12" rx="3" fill="#eef1f4"/><rect x="226" y="64" width="12" height="12" rx="3" fill="#eef1f4"/><rect class="p14_3" x="226" y="79" width="12" height="12" rx="3" fill="#7fcdef" /><rect x="226" y="94" width="12" height="12" rx="3" fill="#eef1f4"/><rect x="226" y="109" width="12" height="12" rx="3" fill="#eef1f4"/><rect x="226" y="124" width="12" height="12" rx="3" fill="#eef1f4"/><rect x="241" y="34" width="12" height="12" rx="3" fill="#eef1f4"/><rect x="241" y="49" width="12" height="12" rx="3" fill="#eef1f4"/><rect x="241" y="64" width="12" height="12" rx="3" fill="#eef1f4"/><rect x="241" y="79" width="12" height="12" rx="3" fill="#eef1f4"/><rect x="241" y="94" width="12" height="12" rx="3" fill="#eef1f4"/><rect x="241" y="109" width="12" height="12" rx="3" fill="#eef1f4"/><rect x="241" y="124" width="12" height="12" rx="3" fill="#eef1f4"/><rect x="256" y="34" width="12" height="12" rx="3" fill="#eef1f4"/><rect x="256" y="49" width="12" height="12" rx="3" fill="#eef1f4"/><rect x="256" y="64" width="12" height="12" rx="3" fill="#eef1f4"/><rect x="256" y="79" width="12" height="12" rx="3" fill="#eef1f4"/><rect x="256" y="94" width="12" height="12" rx="3" fill="#eef1f4"/><rect x="256" y="109" width="12" height="12" rx="3" fill="#eef1f4"/><rect x="256" y="124" width="12" height="12" rx="3" fill="#eef1f4"/><rect x="271" y="34" width="12" height="12" rx="3" fill="#eef1f4"/><rect x="271" y="49" width="12" height="12" rx="3" fill="#eef1f4"/><rect x="271" y="64" width="12" height="12" rx="3" fill="#eef1f4"/><rect x="271" y="79" width="12" height="12" rx="3" fill="#eef1f4"/><rect x="271" y="94" width="12" height="12" rx="3" fill="#eef1f4"/><rect x="271" y="109" width="12" height="12" rx="3" fill="#eef1f4"/><rect x="271" y="124" width="12" height="12" rx="3" fill="#eef1f4"/><rect x="286" y="34" width="12" height="12" rx="3" fill="#eef1f4"/><rect x="286" y="49" width="12" height="12" rx="3" fill="#eef1f4"/><rect x="286" y="64" width="12" height="12" rx="3" fill="#eef1f4"/><rect x="286" y="79" width="12" height="12" rx="3" fill="#eef1f4"/><rect x="286" y="94" width="12" height="12" rx="3" fill="#eef1f4"/><rect x="286" y="109" width="12" height="12" rx="3" fill="#eef1f4"/><rect x="286" y="124" width="12" height="12" rx="3" fill="#eef1f4"/><rect x="301" y="34" width="12" height="12" rx="3" fill="#eef1f4"/><rect x="301" y="49" width="12" height="12" rx="3" fill="#eef1f4"/><rect x="301" y="64" width="12" height="12" rx="3" fill="#eef1f4"/><rect x="301" y="79" width="12" height="12" rx="3" fill="#eef1f4"/><rect x="301" y="94" width="12" height="12" rx="3" fill="#eef1f4"/><rect x="301" y="109" width="12" height="12" rx="3" fill="#eef1f4"/><rect x="301" y="124" width="12" height="12" rx="3" fill="#eef1f4"/><rect x="316" y="34" width="12" height="12" rx="3" fill="#eef1f4"/><rect x="316" y="49" width="12" height="12" rx="3" fill="#eef1f4"/><rect x="316" y="64" width="12" height="12" rx="3" fill="#eef1f4"/><rect x="316" y="79" width="12" height="12" rx="3" fill="#eef1f4"/><rect x="316" y="94" width="12" height="12" rx="3" fill="#eef1f4"/><rect x="316" y="109" width="12" height="12" rx="3" fill="#eef1f4"/><rect x="316" y="124" width="12" height="12" rx="3" fill="#eef1f4"/><rect x="331" y="34" width="12" height="12" rx="3" fill="#eef1f4"/><rect x="331" y="49" width="12" height="12" rx="3" fill="#eef1f4"/><rect x="331" y="64" width="12" height="12" rx="3" fill="#eef1f4"/><rect x="331" y="79" width="12" height="12" rx="3" fill="#eef1f4"/><rect x="331" y="94" width="12" height="12" rx="3" fill="#eef1f4"/><rect x="331" y="109" width="12" height="12" rx="3" fill="#eef1f4"/><rect x="331" y="124" width="12" height="12" rx="3" fill="#eef1f4"/><rect x="346" y="34" width="12" height="12" rx="3" fill="#eef1f4"/><rect x="346" y="49" width="12" height="12" rx="3" fill="#eef1f4"/><rect x="346" y="64" width="12" height="12" rx="3" fill="#eef1f4"/><rect x="346" y="79" width="12" height="12" rx="3" fill="#eef1f4"/><rect x="346" y="94" width="12" height="12" rx="3" fill="#eef1f4"/><rect x="346" y="109" width="12" height="12" rx="3" fill="#eef1f4"/><rect x="346" y="124" width="12" height="12" rx="3" fill="#eef1f4"/><rect x="361" y="34" width="12" height="12" rx="3" fill="#eef1f4"/><rect x="361" y="49" width="12" height="12" rx="3" fill="#eef1f4"/><rect x="361" y="64" width="12" height="12" rx="3" fill="#eef1f4"/><rect class="p23_3" x="361" y="79" width="12" height="12" rx="3" fill="#7fcdef" /><rect x="361" y="94" width="12" height="12" rx="3" fill="#eef1f4"/><rect x="361" y="109" width="12" height="12" rx="3" fill="#eef1f4"/><rect x="361" y="124" width="12" height="12" rx="3" fill="#eef1f4"/><rect x="376" y="34" width="12" height="12" rx="3" fill="#eef1f4"/><rect x="376" y="49" width="12" height="12" rx="3" fill="#eef1f4"/><rect x="376" y="64" width="12" height="12" rx="3" fill="#eef1f4"/><rect x="376" y="79" width="12" height="12" rx="3" fill="#eef1f4"/><rect x="376" y="94" width="12" height="12" rx="3" fill="#eef1f4"/><rect x="376" y="109" width="12" height="12" rx="3" fill="#eef1f4"/><rect x="376" y="124" width="12" height="12" rx="3" fill="#eef1f4"/><rect x="391" y="34" width="12" height="12" rx="3" fill="#eef1f4"/><rect x="391" y="49" width="12" height="12" rx="3" fill="#eef1f4"/><rect x="391" y="64" width="12" height="12" rx="3" fill="#eef1f4"/><rect x="391" y="79" width="12" height="12" rx="3" fill="#eef1f4"/><rect x="391" y="94" width="12" height="12" rx="3" fill="#eef1f4"/><rect x="391" y="109" width="12" height="12" rx="3" fill="#eef1f4"/><rect x="391" y="124" width="12" height="12" rx="3" fill="#eef1f4"/><rect x="406" y="34" width="12" height="12" rx="3" fill="#eef1f4"/><rect x="406" y="49" width="12" height="12" rx="3" fill="#eef1f4"/><rect x="406" y="64" width="12" height="12" rx="3" fill="#eef1f4"/><rect x="406" y="79" width="12" height="12" rx="3" fill="#eef1f4"/><rect x="406" y="94" width="12" height="12" rx="3" fill="#eef1f4"/><rect x="406" y="109" width="12" height="12" rx="3" fill="#eef1f4"/><rect x="406" y="124" width="12" height="12" rx="3" fill="#eef1f4"/><rect x="421" y="34" width="12" height="12" rx="3" fill="#eef1f4"/><rect x="421" y="49" width="12" height="12" rx="3" fill="#eef1f4"/><rect x="421" y="64" width="12" height="12" rx="3" fill="#eef1f4"/><rect x="421" y="79" width="12" height="12" rx="3" fill="#eef1f4"/><rect x="421" y="94" width="12" height="12" rx="3" fill="#eef1f4"/><rect x="421" y="109" width="12" height="12" rx="3" fill="#eef1f4"/><rect x="421" y="124" width="12" height="12" rx="3" fill="#eef1f4"/><rect x="436" y="34" width="12" height="12" rx="3" fill="#eef1f4"/><rect x="436" y="49" width="12" height="12" rx="3" fill="#eef1f4"/><rect x="436" y="64" width="12" height="12" rx="3" fill="#eef1f4"/><rect x="436" y="79" width="12" height="12" rx="3" fill="#eef1f4"/><rect x="436" y="94" width="12" height="12" rx="3" fill="#eef1f4"/><rect x="436" y="109" width="12" height="12" rx="3" fill="#eef1f4"/><rect x="436" y="124" width="12" height="12" rx="3" fill="#eef1f4"/><rect x="451" y="34" width="12" height="12" rx="3" fill="#eef1f4"/><rect x="451" y="49" width="12" height="12" rx="3" fill="#eef1f4"/><rect x="451" y="64" width="12" height="12" rx="3" fill="#eef1f4"/><rect x="451" y="79" width="12" height="12" rx="3" fill="#eef1f4"/><rect x="451" y="94" width="12" height="12" rx="3" fill="#eef1f4"/><rect x="451" y="109" width="12" height="12" rx="3" fill="#eef1f4"/><rect x="451" y="124" width="12" height="12" rx="3" fill="#eef1f4"/><rect x="466" y="34" width="12" height="12" rx="3" fill="#eef1f4"/><rect x="466" y="49" width="12" height="12" rx="3" fill="#eef1f4"/><rect x="466" y="64" width="12" height="12" rx="3" fill="#eef1f4"/><rect x="466" y="79" width="12" height="12" rx="3" fill="#eef1f4"/><rect x="466" y="94" width="12" height="12" rx="3" fill="#eef1f4"/><rect x="466" y="109" width="12" height="12" rx="3" fill="#eef1f4"/><rect x="466" y="124" width="12" height="12" rx="3" fill="#eef1f4"/><rect x="481" y="34" width="12" height="12" rx="3" fill="#eef1f4"/><rect x="481" y="49" width="12" height="12" rx="3" fill="#eef1f4"/><rect x="481" y="64" width="12" height="12" rx="3" fill="#eef1f4"/><rect x="481" y="79" width="12" height="12" rx="3" fill="#eef1f4"/><rect x="481" y="94" width="12" height="12" rx="3" fill="#eef1f4"/><rect x="481" y="109" width="12" height="12" rx="3" fill="#eef1f4"/><rect x="481" y="124" width="12" height="12" rx="3" fill="#eef1f4"/><rect x="496" y="34" width="12" height="12" rx="3" fill="#eef1f4"/><rect x="496" y="49" width="12" height="12" rx="3" fill="#eef1f4"/><rect x="496" y="64" width="12" height="12" rx="3" fill="#eef1f4"/><rect x="496" y="79" width="12" height="12" rx="3" fill="#eef1f4"/><rect x="496" y="94" width="12" height="12" rx="3" fill="#eef1f4"/><rect x="496" y="109" width="12" height="12" rx="3" fill="#eef1f4"/><rect x="496" y="124" width="12" height="12" rx="3" fill="#eef1f4"/><rect x="511" y="34" width="12" height="12" rx="3" fill="#eef1f4"/><rect x="511" y="49" width="12" height="12" rx="3" fill="#eef1f4"/><rect class="p33_2" x="511" y="64" width="12" height="12" rx="3" fill="#36a6d9" style="filter:drop-shadow(0 0 2.5px rgba(11,127,176,0.25))"/><rect class="p33_3" x="511" y="79" width="12" height="12" rx="3" fill="#7fcdef" /><rect class="p33_4" x="511" y="94" width="12" height="12" rx="3" fill="#36a6d9" style="filter:drop-shadow(0 0 2.5px rgba(11,127,176,0.25))"/><rect x="511" y="109" width="12" height="12" rx="3" fill="#eef1f4"/><rect class="p33_6" x="511" y="124" width="12" height="12" rx="3" fill="#0b7fb0" style="filter:drop-shadow(0 0 2.5px rgba(11,127,176,0.25))"/><rect class="p34_0" x="526" y="34" width="12" height="12" rx="3" fill="#bfe6f7" /><rect class="p34_1" x="526" y="49" width="12" height="12" rx="3" fill="#36a6d9" style="filter:drop-shadow(0 0 2.5px rgba(11,127,176,0.25))"/><rect x="526" y="64" width="12" height="12" rx="3" fill="#eef1f4"/><rect x="526" y="79" width="12" height="12" rx="3" fill="#eef1f4"/><rect x="526" y="94" width="12" height="12" rx="3" fill="#eef1f4"/><rect class="p34_5" x="526" y="109" width="12" height="12" rx="3" fill="#36a6d9" style="filter:drop-shadow(0 0 2.5px rgba(11,127,176,0.25))"/><rect x="526" y="124" width="12" height="12" rx="3" fill="#eef1f4"/><rect x="541" y="34" width="12" height="12" rx="3" fill="#eef1f4"/><rect x="541" y="49" width="12" height="12" rx="3" fill="#eef1f4"/><rect x="541" y="64" width="12" height="12" rx="3" fill="#eef1f4"/><rect x="541" y="79" width="12" height="12" rx="3" fill="#eef1f4"/><rect x="541" y="94" width="12" height="12" rx="3" fill="#eef1f4"/><rect class="p35_5" x="541" y="109" width="12" height="12" rx="3" fill="#36a6d9" style="filter:drop-shadow(0 0 2.5px rgba(11,127,176,0.25))"/><rect class="p35_6" x="541" y="124" width="12" height="12" rx="3" fill="#bfe6f7" /><rect x="556" y="34" width="12" height="12" rx="3" fill="#eef1f4"/><rect x="556" y="49" width="12" height="12" rx="3" fill="#eef1f4"/><rect x="556" y="64" width="12" height="12" rx="3" fill="#eef1f4"/><rect x="556" y="79" width="12" height="12" rx="3" fill="#eef1f4"/><rect x="556" y="94" width="12" height="12" rx="3" fill="#eef1f4"/><rect x="556" y="109" width="12" height="12" rx="3" fill="#eef1f4"/><rect x="556" y="124" width="12" height="12" rx="3" fill="#eef1f4"/><rect x="571" y="34" width="12" height="12" rx="3" fill="#eef1f4"/><rect x="571" y="49" width="12" height="12" rx="3" fill="#eef1f4"/><rect x="571" y="64" width="12" height="12" rx="3" fill="#eef1f4"/><rect x="571" y="79" width="12" height="12" rx="3" fill="#eef1f4"/><rect x="571" y="94" width="12" height="12" rx="3" fill="#eef1f4"/><rect x="571" y="109" width="12" height="12" rx="3" fill="#eef1f4"/><rect x="571" y="124" width="12" height="12" rx="3" fill="#eef1f4"/><rect x="586" y="34" width="12" height="12" rx="3" fill="#eef1f4"/><rect x="586" y="49" width="12" height="12" rx="3" fill="#eef1f4"/><rect x="586" y="64" width="12" height="12" rx="3" fill="#eef1f4"/><rect x="586" y="79" width="12" height="12" rx="3" fill="#eef1f4"/><rect x="586" y="94" width="12" height="12" rx="3" fill="#eef1f4"/><rect x="586" y="109" width="12" height="12" rx="3" fill="#eef1f4"/><rect x="586" y="124" width="12" height="12" rx="3" fill="#eef1f4"/><rect x="601" y="34" width="12" height="12" rx="3" fill="#eef1f4"/><rect x="601" y="49" width="12" height="12" rx="3" fill="#eef1f4"/><rect x="601" y="64" width="12" height="12" rx="3" fill="#eef1f4"/><rect x="601" y="79" width="12" height="12" rx="3" fill="#eef1f4"/><rect x="601" y="94" width="12" height="12" rx="3" fill="#eef1f4"/><rect x="601" y="109" width="12" height="12" rx="3" fill="#eef1f4"/><rect x="601" y="124" width="12" height="12" rx="3" fill="#eef1f4"/><rect x="616" y="34" width="12" height="12" rx="3" fill="#eef1f4"/><rect x="616" y="49" width="12" height="12" rx="3" fill="#eef1f4"/><rect x="616" y="64" width="12" height="12" rx="3" fill="#eef1f4"/><rect x="616" y="79" width="12" height="12" rx="3" fill="#eef1f4"/><rect x="616" y="94" width="12" height="12" rx="3" fill="#eef1f4"/><rect x="616" y="109" width="12" height="12" rx="3" fill="#eef1f4"/><rect x="616" y="124" width="12" height="12" rx="3" fill="#eef1f4"/><rect x="631" y="34" width="12" height="12" rx="3" fill="#eef1f4"/><rect x="631" y="49" width="12" height="12" rx="3" fill="#eef1f4"/><rect x="631" y="64" width="12" height="12" rx="3" fill="#eef1f4"/><rect x="631" y="79" width="12" height="12" rx="3" fill="#eef1f4"/><rect x="631" y="94" width="12" height="12" rx="3" fill="#eef1f4"/><rect x="631" y="109" width="12" height="12" rx="3" fill="#eef1f4"/><rect x="631" y="124" width="12" height="12" rx="3" fill="#eef1f4"/><rect x="646" y="34" width="12" height="12" rx="3" fill="#eef1f4"/><rect x="646" y="49" width="12" height="12" rx="3" fill="#eef1f4"/><rect x="646" y="64" width="12" height="12" rx="3" fill="#eef1f4"/><rect x="646" y="79" width="12" height="12" rx="3" fill="#eef1f4"/><rect class="p42_4" x="646" y="94" width="12" height="12" rx="3" fill="#0b7fb0" style="filter:drop-shadow(0 0 2.5px rgba(11,127,176,0.25))"/><rect x="646" y="109" width="12" height="12" rx="3" fill="#eef1f4"/><rect x="646" y="124" width="12" height="12" rx="3" fill="#eef1f4"/><rect x="661" y="34" width="12" height="12" rx="3" fill="#eef1f4"/><rect x="661" y="49" width="12" height="12" rx="3" fill="#eef1f4"/><rect x="661" y="64" width="12" height="12" rx="3" fill="#eef1f4"/><rect x="661" y="79" width="12" height="12" rx="3" fill="#eef1f4"/><rect x="661" y="94" width="12" height="12" rx="3" fill="#eef1f4"/><rect x="661" y="109" width="12" height="12" rx="3" fill="#eef1f4"/><rect x="661" y="124" width="12" height="12" rx="3" fill="#eef1f4"/><rect x="676" y="34" width="12" height="12" rx="3" fill="#eef1f4"/><rect x="676" y="49" width="12" height="12" rx="3" fill="#eef1f4"/><rect x="676" y="64" width="12" height="12" rx="3" fill="#eef1f4"/><rect x="676" y="79" width="12" height="12" rx="3" fill="#eef1f4"/><rect x="676" y="94" width="12" height="12" rx="3" fill="#eef1f4"/><rect x="676" y="109" width="12" height="12" rx="3" fill="#eef1f4"/><rect x="676" y="124" width="12" height="12" rx="3" fill="#eef1f4"/><rect class="p45_0" x="691" y="34" width="12" height="12" rx="3" fill="#0b7fb0" style="filter:drop-shadow(0 0 2.5px rgba(11,127,176,0.25))"/><rect class="p45_1" x="691" y="49" width="12" height="12" rx="3" fill="#36a6d9" style="filter:drop-shadow(0 0 2.5px rgba(11,127,176,0.25))"/><rect class="p45_2" x="691" y="64" width="12" height="12" rx="3" fill="#7fcdef" /><rect class="p45_3" x="691" y="79" width="12" height="12" rx="3" fill="#0b7fb0" style="filter:drop-shadow(0 0 2.5px rgba(11,127,176,0.25))"/><rect x="691" y="94" width="12" height="12" rx="3" fill="#eef1f4"/><rect x="691" y="109" width="12" height="12" rx="3" fill="#eef1f4"/><rect x="691" y="124" width="12" height="12" rx="3" fill="#eef1f4"/><rect x="706" y="34" width="12" height="12" rx="3" fill="#eef1f4"/><rect x="706" y="49" width="12" height="12" rx="3" fill="#eef1f4"/><rect x="706" y="64" width="12" height="12" rx="3" fill="#eef1f4"/><rect x="706" y="79" width="12" height="12" rx="3" fill="#eef1f4"/><rect x="706" y="94" width="12" height="12" rx="3" fill="#eef1f4"/><rect x="706" y="109" width="12" height="12" rx="3" fill="#eef1f4"/><rect x="706" y="124" width="12" height="12" rx="3" fill="#eef1f4"/><rect x="721" y="34" width="12" height="12" rx="3" fill="#eef1f4"/><rect class="p47_1" x="721" y="49" width="12" height="12" rx="3" fill="#7fcdef" /><rect x="721" y="64" width="12" height="12" rx="3" fill="#eef1f4"/><rect x="721" y="79" width="12" height="12" rx="3" fill="#eef1f4"/><rect x="721" y="94" width="12" height="12" rx="3" fill="#eef1f4"/><rect class="p47_5" x="721" y="109" width="12" height="12" rx="3" fill="#7fcdef" /><rect class="p47_6" x="721" y="124" width="12" height="12" rx="3" fill="#bfe6f7" /><rect class="p48_0" x="736" y="34" width="12" height="12" rx="3" fill="#0b7fb0" style="filter:drop-shadow(0 0 2.5px rgba(11,127,176,0.25))"/><rect class="p48_1" x="736" y="49" width="12" height="12" rx="3" fill="#bfe6f7" /><rect x="736" y="64" width="12" height="12" rx="3" fill="#eef1f4"/><rect x="736" y="79" width="12" height="12" rx="3" fill="#eef1f4"/><rect x="736" y="94" width="12" height="12" rx="3" fill="#eef1f4"/><rect x="736" y="109" width="12" height="12" rx="3" fill="#eef1f4"/><rect x="736" y="124" width="12" height="12" rx="3" fill="#eef1f4"/><rect x="751" y="34" width="12" height="12" rx="3" fill="#eef1f4"/><rect x="751" y="49" width="12" height="12" rx="3" fill="#eef1f4"/><rect x="751" y="64" width="12" height="12" rx="3" fill="#eef1f4"/><rect x="751" y="79" width="12" height="12" rx="3" fill="#eef1f4"/><rect x="751" y="94" width="12" height="12" rx="3" fill="#eef1f4"/><rect x="751" y="109" width="12" height="12" rx="3" fill="#eef1f4"/><rect x="751" y="124" width="12" height="12" rx="3" fill="#eef1f4"/><rect x="766" y="34" width="12" height="12" rx="3" fill="#eef1f4"/><rect x="766" y="49" width="12" height="12" rx="3" fill="#eef1f4"/><rect x="766" y="64" width="12" height="12" rx="3" fill="#eef1f4"/><rect x="766" y="79" width="12" height="12" rx="3" fill="#eef1f4"/><rect x="766" y="94" width="12" height="12" rx="3" fill="#eef1f4"/><rect x="766" y="109" width="12" height="12" rx="3" fill="#eef1f4"/><rect class="p50_6" x="766" y="124" width="12" height="12" rx="3" fill="#0b7fb0" style="filter:drop-shadow(0 0 2.5px rgba(11,127,176,0.25))"/><rect x="781" y="34" width="12" height="12" rx="3" fill="#eef1f4"/><rect x="781" y="49" width="12" height="12" rx="3" fill="#eef1f4"/><rect class="p51_2" x="781" y="64" width="12" height="12" rx="3" fill="#0b7fb0" style="filter:drop-shadow(0 0 2.5px rgba(11,127,176,0.25))"/><rect class="p51_3" x="781" y="79" width="12" height="12" rx="3" fill="#36a6d9" style="filter:drop-shadow(0 0 2.5px rgba(11,127,176,0.25))"/><rect class="p51_4" x="781" y="94" width="12" height="12" rx="3" fill="#7fcdef" /><rect x="781" y="109" width="12" height="12" rx="3" fill="#eef1f4"/><rect x="781" y="124" width="12" height="12" rx="3" fill="#eef1f4"/><rect class="p52_0" x="796" y="34" width="12" height="12" rx="3" fill="#0b7fb0" style="filter:drop-shadow(0 0 2.5px rgba(11,127,176,0.25))"/><rect class="p52_1" x="796" y="49" width="12" height="12" rx="3" fill="#0b7fb0" style="filter:drop-shadow(0 0 2.5px rgba(11,127,176,0.25))"/><rect class="p52_2" x="796" y="64" width="12" height="12" rx="3" fill="#36a6d9" style="filter:drop-shadow(0 0 2.5px rgba(11,127,176,0.25))"/><rect x="796" y="79" width="12" height="12" rx="3" fill="#eef1f4"/><rect x="796" y="94" width="12" height="12" rx="3" fill="#eef1f4"/><rect x="796" y="109" width="12" height="12" rx="3" fill="#eef1f4"/><rect x="796" y="124" width="12" height="12" rx="3" fill="#eef1f4"/>
<g class="mv g2"><g class="bob">
    <path d="M-6.5,5.5 L-6.5,-0.5 A6.5,6.5 0 0 1 6.5,-0.5 L6.5,5.5 L4.3,3.9 L2.2,5.5 L0,3.9 L-2.2,5.5 L-4.3,3.9 Z" fill="#15803d" style="filter:drop-shadow(0 0 3px rgba(21,128,61,0.35))"/>
    <circle cx="-2.6" cy="-1.2" r="2" fill="#fff"/>
    <circle cx="2.6" cy="-1.2" r="2" fill="#fff"/>
    <circle cx="-1.9" cy="-1.2" r="1" fill="#0a0e14"/>
    <circle cx="3.3" cy="-1.2" r="1" fill="#0a0e14"/>
  </g></g>
<g class="mv g1"><g class="bob">
    <path d="M-6.5,5.5 L-6.5,-0.5 A6.5,6.5 0 0 1 6.5,-0.5 L6.5,5.5 L4.3,3.9 L2.2,5.5 L0,3.9 L-2.2,5.5 L-4.3,3.9 Z" fill="#0b7fb0" style="filter:drop-shadow(0 0 3px rgba(11,127,176,0.35))"/>
    <circle cx="-2.6" cy="-1.2" r="2" fill="#fff"/>
    <circle cx="2.6" cy="-1.2" r="2" fill="#fff"/>
    <circle cx="-1.9" cy="-1.2" r="1" fill="#0a0e14"/>
    <circle cx="3.3" cy="-1.2" r="1" fill="#0a0e14"/>
  </g></g>
<g class="mv"><g class="rot">
  <path class="mo" d="M0,0 L5.9,-4.13 A7.2,7.2 0 1 0 5.9,4.13 Z" fill="#eab308" style="filter:drop-shadow(0 0 4px rgba(234,179,8,0.45))"/>
  <path class="mc" d="M0,0 L7.18,-0.5 A7.2,7.2 0 1 0 7.18,0.5 Z" fill="#eab308" style="filter:drop-shadow(0 0 4px rgba(234,179,8,0.45))"/>
</g></g>
</svg>